<svg width="300" height="239" viewBox="0 0 300 239" fill="none" xmlns="http://www.w3.org/2000/svg">
<path d="M289.177 155.321C305.349 139.144 299.813 112.982 290.646 69.6491C290.25 67.0866 289.563 64.6022 288.584 62.2012C287.61 59.7949 286.37 57.5397 284.865 55.4304C283.36 53.3158 281.636 51.4043 279.688 49.696C277.735 47.9876 275.615 46.5293 273.323 45.3158C258.813 37.9512 239.714 42.1751 228.87 45.6647C228.781 42.446 228.412 39.2585 227.761 36.1074C227.11 32.9512 226.193 29.8783 225 26.8887C223.807 23.8991 222.36 21.0345 220.662 18.3001C218.964 15.5658 217.042 12.9981 214.891 10.6022C214.672 10.3731 214.432 10.1595 214.172 9.97723C188.073 -9.01236 142.047 1.95118 125.833 19.1699C118.292 27.1751 117.495 36.4772 123.714 44.0397C134.776 57.5085 133.641 65.4876 132.443 68.571C110.193 71.2897 88.245 75.5554 66.5991 81.3679C44.9533 87.1856 23.8179 94.4876 3.19808 103.285C2.56787 103.566 2.01058 103.956 1.5262 104.456C1.04183 104.951 0.672038 105.524 0.406413 106.165C0.140787 106.805 0.00537198 107.472 0.000162646 108.165C-0.00504535 108.857 0.114746 109.529 0.369954 110.175C17.7606 154.93 48.5054 155.639 61.6356 155.936C63.2033 155.936 64.7658 156.019 66.3231 156.18L66.3387 156.191C68.3022 157.613 68.3022 157.613 70.2137 172.071C70.7866 176.399 71.5054 181.847 72.4741 188.738C77.6929 225.842 103.422 237.373 104.516 237.847C105.078 238.092 105.667 238.238 106.276 238.279C106.891 238.321 107.495 238.264 108.083 238.102C108.677 237.941 109.224 237.686 109.729 237.337C110.235 236.988 110.667 236.561 111.026 236.066C111.391 235.571 111.656 235.024 111.833 234.436C112.005 233.852 112.083 233.248 112.052 232.633C112.021 232.024 111.896 231.43 111.662 230.863C111.432 230.295 111.115 229.779 110.708 229.316C106.365 224.389 106.485 217.186 107.13 202.66C107.271 199.498 107.422 196.102 107.521 192.446C107.542 190.326 107.365 188.227 106.985 186.144C106.61 184.061 106.037 182.029 105.276 180.055C104.511 178.081 103.568 176.196 102.443 174.399C101.323 172.607 100.042 170.936 98.5991 169.383C94.9429 164.738 93.3647 162.524 94.2658 158.535C94.9116 155.67 95.8647 154.347 96.4793 154.076C97.1043 153.93 97.7189 153.977 98.3179 154.217C140.526 223.8 250.24 189.748 254.922 188.264C255.453 188.097 255.948 187.847 256.401 187.524C256.854 187.206 257.25 186.821 257.589 186.373C257.922 185.93 258.182 185.441 258.37 184.915C258.557 184.389 258.656 183.847 258.677 183.29C258.693 182.732 258.625 182.186 258.474 181.649C258.323 181.107 258.094 180.607 257.787 180.144C257.479 179.675 257.11 179.269 256.677 178.915C256.245 178.566 255.766 178.285 255.25 178.081C250.459 175.201 246.667 171.342 243.87 166.503C245.818 167.165 247.802 167.686 249.823 168.061C251.844 168.441 253.886 168.675 255.938 168.764C257.995 168.852 260.047 168.795 262.094 168.587C264.141 168.383 266.162 168.035 268.156 167.545C270.156 167.05 272.11 166.42 274.016 165.644C275.922 164.873 277.766 163.972 279.542 162.941C281.323 161.904 283.021 160.748 284.63 159.472C286.245 158.196 287.761 156.811 289.177 155.321ZM40.7918 117.68C40.5158 118.352 40.1252 118.946 39.6043 119.462C39.0991 119.962 38.5158 120.352 37.8595 120.623C37.1981 120.894 36.5106 121.029 35.797 121.029C35.0887 121.029 34.4012 120.894 33.7397 120.623C33.0835 120.352 32.5002 119.962 31.995 119.462C31.495 118.936 31.0991 118.342 30.8075 117.68C30.2814 116.311 30.2814 114.941 30.8075 113.571C31.0731 112.894 31.4689 112.3 31.995 111.79C32.495 111.3 33.0679 110.92 33.7189 110.654C34.3804 110.357 35.0731 110.206 35.797 110.206C36.521 110.206 37.2137 110.357 37.8752 110.654C38.5262 110.92 39.1043 111.3 39.6043 111.79C40.146 112.285 40.5418 112.883 40.7918 113.571C41.0835 114.227 41.2241 114.91 41.2241 115.628C41.2241 116.342 41.0835 117.024 40.7918 117.68ZM179.563 20.3262C179.901 20.2324 180.25 20.1751 180.604 20.1491C180.959 20.1231 181.313 20.1335 181.662 20.1751C182.016 20.2168 182.36 20.2949 182.693 20.4095C183.031 20.5189 183.354 20.6595 183.662 20.8366C183.969 21.0085 184.261 21.2116 184.526 21.446C184.797 21.6751 185.042 21.9304 185.261 22.2116C185.479 22.4876 185.667 22.7897 185.828 23.1022C185.99 23.4199 186.115 23.7481 186.209 24.0918C188.932 33.2741 193.089 41.7481 198.688 49.5137C198.88 49.8106 199.042 50.1231 199.172 50.4564C199.302 50.7845 199.401 51.1231 199.464 51.472C199.526 51.821 199.557 52.1751 199.552 52.5293C199.547 52.8835 199.505 53.2324 199.432 53.5814C199.354 53.9251 199.25 54.2637 199.11 54.5866C198.969 54.9147 198.797 55.222 198.594 55.5137C198.396 55.8054 198.167 56.0762 197.912 56.3262C197.656 56.571 197.38 56.7897 197.084 56.9824C196.787 57.1751 196.474 57.3366 196.141 57.4668C195.813 57.6022 195.474 57.696 195.125 57.7585C194.776 57.8262 194.422 57.8522 194.068 57.847C193.714 57.8418 193.365 57.8054 193.016 57.7272C192.672 57.6543 192.334 57.5449 192.011 57.4043C191.682 57.2637 191.375 57.097 191.084 56.8939C190.792 56.6908 190.521 56.4616 190.276 56.2064C190.031 55.9564 189.807 55.6804 189.615 55.3783C183.417 46.6908 178.813 37.222 175.802 26.9824C175.709 26.6387 175.646 26.2897 175.62 25.9408C175.594 25.5866 175.604 25.2324 175.646 24.8783C175.688 24.5293 175.766 24.1804 175.875 23.847C175.99 23.5085 176.13 23.1856 176.307 22.8783C176.479 22.5658 176.682 22.2793 176.912 22.0085C177.146 21.7429 177.401 21.4981 177.682 21.2793C177.959 21.0606 178.255 20.8731 178.573 20.7116C178.891 20.5501 179.219 20.4251 179.563 20.3262ZM153.089 26.8887C153.427 26.7845 153.771 26.7116 154.125 26.6751C154.474 26.6387 154.828 26.6387 155.182 26.6751C155.537 26.7064 155.88 26.7741 156.224 26.8783C156.563 26.9772 156.886 27.1126 157.203 27.2793C157.516 27.446 157.807 27.6387 158.084 27.8626C158.36 28.0918 158.61 28.3366 158.834 28.6126C159.057 28.8835 159.255 29.1804 159.422 29.4929C159.589 29.8054 159.724 30.1283 159.828 30.472C162.438 39.7533 166.386 48.4251 171.672 56.4824C171.875 56.7741 172.052 57.0814 172.198 57.4043C172.339 57.7272 172.453 58.0658 172.531 58.4095C172.61 58.7585 172.651 59.1074 172.656 59.4668C172.667 59.821 172.641 60.1699 172.578 60.5241C172.521 60.8731 172.427 61.2116 172.297 61.5449C172.167 61.8783 172.011 62.1908 171.818 62.4929C171.63 62.7897 171.412 63.071 171.167 63.3262C170.922 63.5866 170.651 63.8158 170.365 64.0189C170.073 64.222 169.766 64.3939 169.438 64.5397C169.115 64.6856 168.781 64.7949 168.432 64.8679C168.084 64.946 167.735 64.9876 167.38 64.9981C167.026 65.0033 166.672 64.9772 166.323 64.9147C165.974 64.8522 165.636 64.7585 165.302 64.6283C164.974 64.5033 164.656 64.3418 164.36 64.1491C164.057 63.9564 163.781 63.7376 163.526 63.4929C163.271 63.2481 163.037 62.9772 162.834 62.6856C156.886 53.696 152.443 44.0137 149.511 33.6335C149.406 33.2949 149.333 32.9512 149.297 32.597C149.266 32.2429 149.261 31.8939 149.297 31.5397C149.328 31.1856 149.396 30.8418 149.5 30.4981C149.599 30.1595 149.735 29.8314 149.901 29.5189C150.068 29.2064 150.261 28.9147 150.485 28.6387C150.709 28.3626 150.959 28.1126 151.235 27.8887C151.505 27.6595 151.797 27.4616 152.11 27.2949C152.422 27.1283 152.745 26.9929 153.089 26.8887ZM187.162 179.248C186.927 179.519 186.672 179.764 186.396 179.982C186.115 180.201 185.818 180.389 185.5 180.55C185.188 180.712 184.854 180.837 184.516 180.936C184.172 181.029 183.828 181.092 183.474 181.118C183.12 181.144 182.766 181.139 182.417 181.092C182.063 181.05 181.719 180.972 181.38 180.863C181.042 180.753 180.719 180.613 180.412 180.436C180.104 180.264 179.813 180.061 179.547 179.831C177.88 178.258 176.38 176.55 175.031 174.701C173.688 172.852 172.521 170.899 171.537 168.831C170.557 166.769 169.771 164.633 169.182 162.42C168.594 160.212 168.219 157.967 168.047 155.686C168.026 155.331 168.042 154.977 168.094 154.628C168.146 154.274 168.229 153.93 168.349 153.597C168.464 153.264 168.615 152.946 168.797 152.639C168.979 152.337 169.188 152.05 169.427 151.785C169.662 151.524 169.922 151.285 170.209 151.071C170.49 150.863 170.792 150.68 171.115 150.524C171.432 150.373 171.766 150.253 172.11 150.165C172.453 150.076 172.802 150.024 173.156 150.008C173.511 149.988 173.86 150.003 174.214 150.055C174.563 150.107 174.906 150.191 175.24 150.311C175.573 150.43 175.891 150.576 176.198 150.758C176.5 150.941 176.787 151.149 177.052 151.389C177.313 151.623 177.552 151.883 177.761 152.17C177.974 152.456 178.156 152.758 178.307 153.076C178.464 153.399 178.584 153.727 178.672 154.071C178.755 154.415 178.807 154.764 178.828 155.118C179.094 158.248 179.896 161.227 181.229 164.071C182.563 166.91 184.344 169.43 186.578 171.628C186.849 171.863 187.094 172.118 187.313 172.394C187.531 172.675 187.719 172.972 187.88 173.29C188.037 173.607 188.167 173.936 188.261 174.274C188.36 174.618 188.417 174.967 188.448 175.321C188.474 175.675 188.464 176.024 188.422 176.378C188.38 176.732 188.302 177.076 188.193 177.41C188.084 177.748 187.943 178.071 187.766 178.383C187.594 178.691 187.391 178.977 187.162 179.248ZM156.432 144.019C151.604 144.123 146.828 143.66 142.104 142.633C133.901 140.883 125.693 140.889 117.49 142.649C117.146 142.738 116.797 142.785 116.443 142.8C116.089 142.816 115.735 142.795 115.386 142.743C115.037 142.686 114.693 142.597 114.36 142.477C114.026 142.357 113.708 142.201 113.406 142.019C113.104 141.837 112.823 141.623 112.563 141.383C112.302 141.144 112.063 140.878 111.854 140.592C111.646 140.305 111.469 140.003 111.318 139.68C111.167 139.357 111.052 139.024 110.969 138.68C110.88 138.337 110.833 137.988 110.818 137.633C110.802 137.279 110.823 136.925 110.875 136.576C110.932 136.222 111.021 135.883 111.141 135.55C111.261 135.217 111.417 134.899 111.599 134.592C111.781 134.29 111.995 134.008 112.235 133.748C112.474 133.488 112.74 133.248 113.026 133.04C113.313 132.831 113.615 132.654 113.938 132.503C114.255 132.352 114.589 132.238 114.932 132.149C119.849 131.061 124.818 130.514 129.854 130.519C134.886 130.519 139.854 131.071 144.766 132.17C157.495 135.41 192.235 131.144 199.547 122.29C199.771 122.019 200.021 121.774 200.297 121.55C200.573 121.326 200.865 121.133 201.177 120.967C201.49 120.805 201.818 120.67 202.156 120.571C202.495 120.472 202.839 120.404 203.193 120.373C203.542 120.342 203.896 120.342 204.245 120.378C204.599 120.415 204.943 120.482 205.281 120.587C205.62 120.691 205.943 120.831 206.25 120.998C206.563 121.165 206.854 121.363 207.125 121.587C207.401 121.811 207.646 122.061 207.87 122.337C208.094 122.607 208.287 122.904 208.453 123.217C208.62 123.524 208.755 123.852 208.854 124.191C208.959 124.529 209.026 124.873 209.063 125.227C209.094 125.576 209.094 125.93 209.063 126.279C209.026 126.633 208.959 126.977 208.854 127.316C208.75 127.654 208.62 127.982 208.453 128.29C208.287 128.602 208.089 128.899 207.865 129.17C199.464 139.352 174.485 144.019 156.432 144.019ZM217.74 177.118C217.531 177.399 217.292 177.66 217.026 177.899C216.766 178.133 216.479 178.347 216.177 178.524C215.87 178.706 215.552 178.857 215.214 178.972C214.88 179.092 214.542 179.175 214.188 179.227C213.839 179.274 213.485 179.29 213.13 179.274C212.776 179.253 212.427 179.201 212.084 179.113C211.74 179.024 211.412 178.904 211.089 178.748C210.771 178.597 210.469 178.41 210.188 178.201C207.87 176.462 205.761 174.498 203.854 172.311C201.953 170.123 200.302 167.764 198.901 165.227C197.5 162.691 196.38 160.035 195.547 157.258C194.709 154.482 194.172 151.649 193.938 148.764C193.927 148.41 193.948 148.061 194.011 147.712C194.068 147.363 194.162 147.024 194.287 146.696C194.412 146.363 194.568 146.05 194.755 145.748C194.943 145.451 195.156 145.175 195.396 144.915C195.641 144.66 195.901 144.425 196.193 144.222C196.479 144.019 196.781 143.842 197.104 143.696C197.422 143.55 197.755 143.436 198.099 143.357C198.443 143.274 198.792 143.227 199.141 143.217C199.495 143.206 199.844 143.227 200.193 143.285C200.542 143.342 200.88 143.43 201.214 143.55C201.542 143.675 201.86 143.831 202.156 144.014C202.459 144.201 202.74 144.41 203 144.654C203.255 144.894 203.49 145.154 203.698 145.441C203.906 145.727 204.084 146.029 204.229 146.347C204.38 146.67 204.495 147.003 204.578 147.342C204.662 147.686 204.709 148.035 204.724 148.389C204.927 150.472 205.344 152.508 205.969 154.508C206.599 156.503 207.427 158.41 208.453 160.232C209.485 162.055 210.688 163.753 212.073 165.326C213.453 166.894 214.985 168.305 216.662 169.555C216.943 169.769 217.203 170.008 217.443 170.269C217.677 170.535 217.891 170.821 218.068 171.123C218.25 171.43 218.401 171.748 218.516 172.081C218.636 172.42 218.719 172.764 218.771 173.113C218.818 173.462 218.834 173.816 218.818 174.17C218.797 174.524 218.745 174.873 218.656 175.217C218.568 175.561 218.448 175.894 218.292 176.212C218.141 176.535 217.953 176.831 217.74 177.118ZM254.417 128.394C249.854 120.342 237.771 120.493 231.792 121.113C231.766 121.206 231.761 121.316 231.729 121.41C231.63 121.748 231.5 122.076 231.339 122.394C231.172 122.706 230.979 123.003 230.755 123.279C230.537 123.555 230.287 123.805 230.016 124.035C229.745 124.264 229.453 124.462 229.141 124.633C228.834 124.805 228.505 124.941 228.167 125.05C227.834 125.154 227.485 125.227 227.136 125.264C226.781 125.305 226.427 125.311 226.073 125.279C225.724 125.248 225.375 125.18 225.037 125.081C224.693 124.982 224.365 124.852 224.052 124.686C223.74 124.524 223.443 124.331 223.167 124.107C222.891 123.883 222.636 123.639 222.412 123.368C222.182 123.092 221.985 122.8 221.813 122.493C221.641 122.18 221.505 121.857 221.396 121.519C221.292 121.18 221.219 120.831 221.182 120.482C221.141 120.128 221.136 119.774 221.167 119.42C221.198 119.066 221.266 118.722 221.365 118.378C223.469 111.165 217.807 91.9199 213.74 81.4876C213.511 80.8991 213.386 80.2897 213.365 79.6595C213.349 79.0293 213.438 78.4147 213.641 77.8158C213.839 77.2168 214.13 76.6699 214.521 76.1751C214.912 75.6804 215.375 75.2689 215.912 74.9356C216.448 74.6022 217.026 74.3731 217.641 74.2429C218.261 74.1179 218.88 74.097 219.505 74.1856C220.13 74.2741 220.719 74.4668 221.276 74.7637C221.834 75.0606 222.318 75.446 222.74 75.9147C230.438 71.6387 244.844 65.1231 257.354 67.8574C257.698 67.9356 258.031 68.0449 258.36 68.1856C258.682 68.3262 258.99 68.4981 259.281 68.7012C259.573 68.9043 259.839 69.1335 260.089 69.3887C260.334 69.6439 260.552 69.9199 260.745 70.222C260.932 70.5189 261.094 70.8314 261.224 71.1647C261.354 71.4929 261.448 71.8366 261.511 72.1856C261.573 72.5345 261.599 72.8835 261.594 73.2376C261.589 73.5918 261.547 73.946 261.469 74.2897C261.396 74.6387 261.287 74.972 261.146 75.2949C261 75.6231 260.828 75.9304 260.625 76.222C260.422 76.5137 260.193 76.7793 259.938 77.0293C259.682 77.2741 259.406 77.4929 259.11 77.6804C258.813 77.8731 258.495 78.0345 258.167 78.1647C257.839 78.2949 257.495 78.3887 257.146 78.4512C256.797 78.5137 256.448 78.5397 256.094 78.5345C255.74 78.5293 255.391 78.4876 255.042 78.4095C246.011 76.4408 233.662 82.0658 226.797 86.0397C227.459 88.0658 228.156 90.321 228.834 92.7376C236.761 90.4095 251.245 87.4512 262.542 92.5085C262.865 92.6543 263.167 92.8314 263.459 93.0397C263.745 93.2429 264.011 93.4772 264.25 93.7324C264.495 93.9929 264.709 94.2689 264.896 94.571C265.084 94.8731 265.24 95.1856 265.37 95.5189C265.495 95.8522 265.584 96.1908 265.646 96.5397C265.703 96.8887 265.729 97.2429 265.719 97.597C265.709 97.9512 265.662 98.3001 265.584 98.6439C265.505 98.9876 265.391 99.3262 265.245 99.6491C265.104 99.972 264.927 100.279 264.724 100.566C264.516 100.852 264.287 101.123 264.026 101.363C263.771 101.607 263.495 101.826 263.193 102.014C262.896 102.201 262.578 102.357 262.25 102.488C261.917 102.613 261.578 102.706 261.229 102.764C260.88 102.826 260.526 102.852 260.172 102.842C259.818 102.831 259.469 102.79 259.125 102.712C258.781 102.633 258.448 102.519 258.12 102.378C250.229 98.8366 238.432 101.133 231.334 103.279C231.771 105.623 232.115 107.946 232.323 110.201C241.063 109.524 256.594 110.321 263.813 123.066C263.985 123.373 264.13 123.696 264.24 124.035C264.349 124.368 264.427 124.717 264.469 125.066C264.516 125.42 264.521 125.769 264.495 126.123C264.469 126.477 264.406 126.826 264.313 127.17C264.219 127.508 264.094 127.837 263.932 128.154C263.776 128.472 263.584 128.769 263.365 129.05C263.151 129.331 262.906 129.587 262.636 129.816C262.37 130.05 262.084 130.253 261.771 130.425C261.464 130.602 261.141 130.743 260.807 130.857C260.469 130.967 260.125 131.045 259.776 131.087C259.422 131.133 259.068 131.139 258.719 131.113C258.365 131.087 258.016 131.029 257.672 130.936C257.334 130.842 257.005 130.712 256.688 130.555C256.37 130.394 256.073 130.206 255.792 129.988C255.511 129.769 255.255 129.529 255.026 129.258C254.792 128.993 254.589 128.701 254.417 128.394Z" fill="black"/>
</svg>
